# xmcd
#
# Track frame offsets: 
#        150
#        22461
#        44549
#        75697
#        113547
#        137116
#        179314
#
# Disc length: 2923 seconds
#
# Revision: 2
# Processed by: cddbd v1.5.2PL0 Copyright (c) Steve Scherf et al.
# Submitted via: ExactAudioCopyFreeDBPlugin 1.0
#
DISCID=5c0b6907
DTITLE=Sly and the Family Stone - Live at the Fillmore East:  October 
DTITLE=4th and 5th, 1968
DYEAR=1968
DGENRE=Rhythm and Blues
TTITLE0=Are You Ready
TTITLE1=Color Me True
TTITLE2=Won't Be Long
TTITLE3=We Love All (Freedom)
TTITLE4=Medley:  Turn Me Loose - I Can't Turn You Loose
TTITLE5=Chicken
TTITLE6=Love City
EXTD=
EXTT0=
EXTT1=
EXTT2=
EXTT3=
EXTT4=
EXTT5=
EXTT6=
PLAYORDER=
